<svg xmlns="http://www.w3.org/2000/svg" viewBox="0 0 82.47 82.47"><defs><style>.cls-1{fill:#0076bb;}.cls-2{fill:#fff;}</style></defs><title>Asset 15EnvelopeFill</title><g id="Layer_2" data-name="Layer 2"><g id="Layer_1-2" data-name="Layer 1"><circle class="cls-1" cx="41.24" cy="41.24" r="41.24"/><path class="cls-2" d="M17.29,24.19a16,16,0,0,1,2.84-.6q21.12,0,42.23,0a15.32,15.32,0,0,1,2.82.6L41.25,44.69Z"/><path class="cls-2" d="M41.25,48.26,47.39,43,65.13,58.14a15.81,15.81,0,0,1-3.1.74q-20.78.06-41.56,0a17.94,17.94,0,0,1-3.19-.66L35.07,43Z"/><path class="cls-2" d="M49,41.47c5.71-5,11.22-9.77,17-14.76V55.87Z"/><path class="cls-2" d="M16.55,55.89V26.71l17,14.75Z"/></g></g></svg>