<svg xmlns="http://www.w3.org/2000/svg" viewBox="0 0 82.47 82.47"><defs><style>.cls-1{fill:#0076bb;}.cls-2{fill:#fff;}</style></defs><title>LocationFill</title><g id="Layer_2" data-name="Layer 2"><g id="Layer_1-2" data-name="Layer 1"><circle class="cls-1" cx="41.24" cy="41.24" r="41.24"/><path class="cls-2" d="M21.18,35.65c.38-7.09,3.29-12.53,9-16.43a18.13,18.13,0,0,1,8.21-3.12A19.56,19.56,0,0,1,57.1,23.84a18.46,18.46,0,0,1,3.76,8.75A19.91,19.91,0,0,1,57.1,47.9c-1.39,1.89-2.69,3.83-4,5.76L42.58,68.78l0,.08a1.53,1.53,0,0,1-2.7,0c-1.4-2-2.77-4-4.16-6L27.12,50.55c-1-1.49-2.12-3-3.08-4.51a18.31,18.31,0,0,1-2.64-7.62C21.28,37.42,21.24,36.41,21.18,35.65Zm20-9.11a8.66,8.66,0,1,0,8.65,8.65A8.65,8.65,0,0,0,41.19,26.54Z"/></g></g></svg>